<?xml version="1.0" standalone="no"?><!DOCTYPE svg PUBLIC "-//W3C//DTD SVG 1.1//EN" "http://www.w3.org/Graphics/SVG/1.1/DTD/svg11.dtd"><svg t="1677674466264" class="icon" viewBox="0 0 1024 1024" version="1.1" xmlns="http://www.w3.org/2000/svg" p-id="5724" xmlns:xlink="http://www.w3.org/1999/xlink" width="200" height="200"><path d="M67 490.3h410.3V80H67v410.3z m61.6-348.7h287.2v287.2H128.6V141.6zM664.3 65.9c-64.2 0-116.4 52.2-116.4 116.4v293.9h293.9c64.2 0 116.4-52.2 116.4-116.4V65.9H664.3z m232.3 293.9c0 30.3-24.6 54.9-54.9 54.9H609.4V182.3c0-30.3 24.6-54.9 54.9-54.9h232.3v232.4zM67 959.6h410.3V549.2H67v410.4z m61.6-348.8h287.2V898H128.6V610.8zM547.9 959.6h410.3V549.2H547.9v410.4z m61.5-348.8h287.2V898H609.4V610.8z" fill="#000000" p-id="5725"></path></svg>